# xmcd
#
# Track frame offsets: 
#        150
#        17325
#        35475
#        49998
#        63225
#        80150
#        97425
#        109063
#        127525
#        141795
#        156843
#        171960
#        188767
#
# Disc length: 2703 seconds
#
# Revision: 1
# Processed by: cddbd v1.4PL0 Copyright (c) Steve Scherf et al.
# Submitted via: ExactAudioCopy v0.90b4
#
DISCID=ac0a8d0d
DTITLE=Sylvia - The Real Story
DYEAR=1900
DGENRE=Country
TTITLE0=Soon As I Find My Voice
TTITLE1=I've Been Down Too Long
TTITLE2=Chance Encounter
TTITLE3=Hand-Me-Down
TTITLE4=Even A Cowboy Can Dream
TTITLE5=See How Much I Love You
TTITLE6=Sweet Shall Your Welcome Be
TTITLE7=The Real Story
TTITLE8=Whole Heart
TTITLE9=Thank God I'm Coming Home
TTITLE10=(I Love You) More Than It Has Ever Rained
TTITLE11=Sonoma
TTITLE12=I Will Not Forget You
EXTD=
EXTT0=
EXTT1=
EXTT2=
EXTT3=
EXTT4=
EXTT5=
EXTT6=
EXTT7=
EXTT8=
EXTT9=
EXTT10=
EXTT11=
EXTT12=
PLAYORDER=
